<svg width="26" height="26" viewBox="0 0 26 26" fill="none" xmlns="http://www.w3.org/2000/svg">
<path d="M2.44456 1.06998C1.57494 1.26052 0.744413 1.91029 0.348689 2.7115C-0.0226078 3.46387 -0.00306584 2.87272 0.00181964 11.8425C0.00181964 18.1301 0.0164761 19.9182 0.0653309 20.0452C0.20701 20.4409 0.680901 20.6314 1.07663 20.4507C1.19388 20.3969 2.29311 19.5175 3.52425 18.4916L5.75203 16.6302H11.6341C18.2051 16.6302 17.8631 16.6449 18.6057 16.2785C19.4167 15.8779 20.0567 15.0522 20.2473 14.1582C20.3547 13.655 20.3547 3.97196 20.2473 3.46875C20.003 2.30112 19.0161 1.31426 17.8485 1.06998C17.3599 0.967388 2.92334 0.967388 2.44456 1.06998ZM17.8338 2.7115C18.1807 2.87272 18.4445 3.13654 18.6057 3.48341L18.7328 3.757V8.81346V13.8699L18.6057 14.1435C18.4445 14.4904 18.1807 14.7542 17.8338 14.9154L17.5602 15.0424L11.4045 15.0669C5.77157 15.0913 5.23417 15.0962 5.10226 15.1744C5.02409 15.2183 4.20333 15.8827 3.28486 16.6498C2.36151 17.4168 1.59937 18.047 1.58472 18.047C1.57006 18.047 1.56029 14.8763 1.56029 10.9973C1.56029 3.26356 1.54563 3.70325 1.85342 3.23425C2.02929 2.97043 2.298 2.77013 2.64975 2.65288C2.88914 2.56494 3.27998 2.56494 10.232 2.57471L17.5602 2.58448L17.8338 2.7115Z" fill="black"/>
<path d="M5.1513 5.75494C4.82398 5.89662 4.63833 6.2728 4.70672 6.63921C4.75069 6.86883 4.99497 7.13753 5.21481 7.20104C5.33695 7.24013 6.93939 7.2499 10.2664 7.24013C15.0981 7.22547 15.1372 7.22547 15.2691 7.12288C15.528 6.93234 15.6062 6.77601 15.6062 6.46822C15.6062 6.16044 15.528 6.0041 15.2691 5.81357C15.1372 5.71097 15.0981 5.71097 10.2175 5.7012C6.20168 5.69143 5.26855 5.7012 5.1513 5.75494Z" fill="black"/>
<path d="M5.1513 8.8819C4.82398 9.02358 4.63833 9.39976 4.70672 9.76617C4.75069 9.99579 4.99497 10.2645 5.21481 10.328C5.33695 10.3671 6.47038 10.3769 8.70305 10.3671C11.9519 10.3524 12.0105 10.3524 12.1424 10.2498C12.4014 10.0593 12.4795 9.90296 12.4795 9.59518C12.4795 9.28739 12.4014 9.13106 12.1424 8.94052C12.0105 8.83793 11.9568 8.83793 8.65419 8.82816C5.93787 8.81839 5.26855 8.82816 5.1513 8.8819Z" fill="black"/>
<path d="M21.5656 7.31865C21.4826 7.35285 21.3556 7.45544 21.2823 7.5385C20.8621 8.03681 21.2334 8.8136 21.8978 8.8136C22.3473 8.8136 22.9043 9.1165 23.1534 9.4878C23.4612 9.95681 23.4465 9.55131 23.4368 16.8942L23.4221 23.5775L22.0737 22.5027C21.3311 21.9165 20.6814 21.4133 20.6325 21.3888C20.5788 21.3644 18.0627 21.3351 14.7748 21.3204L9.00995 21.296L8.73636 21.169C8.38949 21.0029 8.12568 20.7439 7.96934 20.3971C7.85698 20.1528 7.83743 20.0404 7.81301 19.4053C7.78858 18.6285 7.75927 18.5504 7.45148 18.3207C7.26095 18.1791 6.80171 18.1791 6.61118 18.3207C6.30339 18.5455 6.27408 18.6334 6.25942 19.3565C6.23988 20.1821 6.31805 20.5925 6.60141 21.169C6.88965 21.7504 7.38308 22.2438 7.96446 22.532C8.70216 22.8984 8.40903 22.8838 14.5501 22.8838H20.0414L21.8539 24.3348C22.8505 25.136 23.7641 25.8395 23.8862 25.903C24.1647 26.0496 24.4481 26.03 24.6923 25.8444C25.0343 25.5806 25.0099 26.1766 25.0099 17.7101C25.0099 9.17025 25.0294 9.71742 24.6581 8.96505C24.2575 8.15407 23.4319 7.51407 22.5378 7.32353C22.1226 7.2356 21.761 7.2356 21.5656 7.31865Z" fill="black"/>
</svg>
