<svg width="25" height="25" viewBox="0 0 25 25" fill="none" xmlns="http://www.w3.org/2000/svg">
<path d="M12.6666 3.17676L18.3266 8.83676C19.446 9.95537 20.2084 11.3808 20.5175 12.9328C20.8266 14.4848 20.6685 16.0936 20.0632 17.5557C19.4578 19.0178 18.4324 20.2676 17.1167 21.1469C15.801 22.0261 14.2541 22.4955 12.6716 22.4955C11.0892 22.4955 9.54223 22.0261 8.22653 21.1469C6.91082 20.2676 5.88544 19.0178 5.2801 17.5557C4.67475 16.0936 4.51663 14.4848 4.82574 12.9328C5.13484 11.3808 5.89729 9.95537 7.01663 8.83676L12.6666 3.17676Z" stroke="#24243F" stroke-width="2" stroke-linecap="round" stroke-linejoin="round"/>
<path d="M12.1487 18.969C9.9614 18.969 8.18823 17.1959 8.18823 15.0085" stroke="#24243F" stroke-width="2" stroke-linecap="round" stroke-linejoin="round"/>
</svg>
