<svg width="28" height="28" viewBox="0 0 28 28" fill="none" xmlns="http://www.w3.org/2000/svg">
<path d="M27.7276 11.2581H26.5999V11.2H14V16.8H21.9121C20.7578 20.0599 17.6561 22.4 14 22.4C9.36108 22.4 5.59999 18.6389 5.59999 14C5.59999 9.3611 9.36108 5.6 14 5.6C16.1413 5.6 18.0894 6.4078 19.5727 7.7273L23.5325 3.7674C21.0322 1.4371 17.6876 0 14 0C6.26849 0 0 6.2685 0 14C0 21.7315 6.26849 28 14 28C21.7315 28 27.9999 21.7315 27.9999 14C27.9999 13.0613 27.9033 12.145 27.7276 11.2581Z" fill="#FFC107"/>
<path d="M1.61414 7.4837L6.21383 10.857C7.45842 7.7756 10.4726 5.6 13.9999 5.6C16.1412 5.6 18.0893 6.4078 19.5726 7.7273L23.5325 3.7674C21.0321 1.4371 17.6875 0 13.9999 0C8.62252 0 3.95913 3.0359 1.61414 7.4837Z" fill="#FF3D00"/>
<path d="M14 28C17.6162 28 20.902 26.6161 23.3863 24.3656L19.0533 20.699C17.6004 21.8038 15.8252 22.4014 14 22.4C10.3586 22.4 7.26669 20.0781 6.10189 16.8378L1.5365 20.3553C3.85349 24.8892 8.55889 28 14 28Z" fill="#4CAF50"/>
<path d="M27.7277 11.2581H26.6V11.2H14V16.8H21.9121C21.3599 18.3515 20.3653 19.7072 19.0512 20.6997L19.0533 20.6983L23.3863 24.3649C23.0797 24.6435 28 21 28 14C28 13.0613 27.9034 12.145 27.7277 11.2581Z" fill="#1976D2"/>
</svg>
