<svg width="24" height="25" viewBox="0 0 24 25" fill="none" xmlns="http://www.w3.org/2000/svg">
<path d="M20.8401 5.09693C20.3294 4.58594 19.7229 4.18058 19.0555 3.90402C18.388 3.62745 17.6726 3.48511 16.9501 3.48511C16.2276 3.48511 15.5122 3.62745 14.8448 3.90402C14.1773 4.18058 13.5709 4.58594 13.0601 5.09693L12.0001 6.15693L10.9401 5.09693C9.90843 4.06524 8.50915 3.48564 7.05012 3.48564C5.59109 3.48564 4.19181 4.06524 3.16012 5.09693C2.12843 6.12863 1.54883 7.5279 1.54883 8.98693C1.54883 10.446 2.12843 11.8452 3.16012 12.8769L4.22012 13.9369L12.0001 21.7169L19.7801 13.9369L20.8401 12.8769C21.3511 12.3662 21.7565 11.7597 22.033 11.0923C22.3096 10.4248 22.4519 9.70942 22.4519 8.98693C22.4519 8.26445 22.3096 7.54904 22.033 6.88158C21.7565 6.21412 21.3511 5.60769 20.8401 5.09693V5.09693Z" stroke="#24243F" stroke-width="2" stroke-linecap="round" stroke-linejoin="round"/>
</svg>
