<svg width="32" height="31" viewBox="0 0 32 31" fill="none" xmlns="http://www.w3.org/2000/svg">
<path d="M6.94571 0.837196C6.6457 1.00595 6.6332 1.09345 6.62695 3.01221C6.62695 4.94348 6.67695 5.49973 6.92071 6.28099C7.53321 8.23725 9.05822 9.76851 11.0395 10.431C11.8207 10.6873 12.3645 10.7498 13.977 10.7498H15.377V12.9998C15.377 15.4498 15.3895 15.5248 15.7208 15.6748C15.927 15.7686 16.077 15.7686 16.2833 15.6748C16.5833 15.5373 16.627 15.3498 16.627 14.2498V13.2498H18.027C18.802 13.2498 19.652 13.2185 19.9146 13.181C22.6583 12.7998 24.9271 10.531 25.3083 7.78725C25.4021 7.10599 25.4021 3.80597 25.3021 3.59347C25.2208 3.41221 24.9583 3.24971 24.7521 3.24971C24.5708 3.24971 24.3958 3.34971 24.0646 3.64347C23.5021 4.14347 22.5083 4.49972 21.6833 4.49972C19.9583 4.49972 18.0208 5.39348 16.9458 6.68724L16.627 7.06849V4.15597C16.627 0.999697 16.627 0.980947 16.2833 0.824696C16.077 0.730945 15.927 0.730945 15.7208 0.824696C15.3958 0.968447 15.377 1.0997 15.377 2.90596V4.56847L15.0583 4.18722C13.9833 2.89346 12.0457 1.9997 10.3207 1.9997C9.49572 1.9997 8.50197 1.64345 7.93946 1.14345C7.47696 0.730945 7.25821 0.668444 6.94571 0.837196ZM8.95197 3.06221C9.21447 3.13721 9.77698 3.21221 10.2832 3.24971C10.7895 3.28721 11.352 3.36221 11.6207 3.43721C12.977 3.81847 14.1333 4.75597 14.777 5.99973C15.1583 6.72474 15.3145 7.31849 15.3583 8.181L15.3958 8.8935L13.402 7.39349C12.302 6.56849 11.3457 5.86223 11.2707 5.82473C10.752 5.54348 10.1707 6.14973 10.4582 6.66849C10.502 6.74349 11.3082 7.38724 12.252 8.0935C13.1958 8.79975 14.002 9.41226 14.0333 9.44976C14.077 9.49351 13.7958 9.50601 13.0958 9.48101C11.952 9.44351 11.4895 9.33726 10.6957 8.93725C9.42697 8.29975 8.47072 7.14349 8.05821 5.74348C7.94571 5.35598 7.92071 5.07473 7.89571 3.94972L7.86446 2.61846L8.17696 2.77471C8.35197 2.86221 8.69572 2.99346 8.95197 3.06221ZM24.1083 6.59349C24.0771 7.9685 23.9896 8.3685 23.5271 9.24976C23.0458 10.1748 22.3021 10.9185 21.3771 11.3998C20.5396 11.8373 20.0771 11.9435 18.9083 11.981C18.2083 12.006 17.927 11.9935 17.9708 11.9498C18.0083 11.9123 18.8083 11.2998 19.752 10.5935C20.6958 9.88726 21.5021 9.24351 21.5458 9.16851C21.8333 8.64975 21.2521 8.0435 20.7333 8.32475C20.6583 8.36225 19.702 9.06851 18.602 9.89351L16.6083 11.3935L16.6458 10.681C16.6708 10.256 16.7333 9.78101 16.8145 9.50601C17.302 7.78725 18.6708 6.41849 20.3833 5.93723C20.6521 5.86223 21.2146 5.78723 21.7208 5.74973C22.6458 5.68723 23.3083 5.53723 23.8021 5.28723L24.0958 5.13723L24.1208 5.26848C24.1333 5.34348 24.1271 5.93723 24.1083 6.59349Z" fill="black"/>
<path d="M1.91443 7.06231C1.52068 7.16232 0.958175 7.49982 0.683173 7.79357C0.545672 7.94357 0.33942 8.25607 0.233169 8.48733L0.0331679 8.90608L0.0144177 13.6874C0.00191765 17.8061 0.0081677 18.5624 0.0956683 19.1499C0.33942 20.8124 1.07693 22.3374 2.24568 23.5749C3.03944 24.4187 3.59569 24.7875 5.64571 25.8187L7.50197 26.75V28.5C7.50197 29.7187 7.52697 30.2937 7.57697 30.4062C7.73323 30.75 7.70197 30.75 11.4395 30.75C15.177 30.75 15.1458 30.75 15.302 30.4062C15.4208 30.15 15.4083 21.7374 15.2895 21.1749C15.1083 20.3499 14.5958 19.5312 13.9208 19.0249C13.3395 18.5874 12.8645 18.4062 11.8145 18.2187C11.002 18.0687 9.85199 17.6874 9.17074 17.3311C8.65823 17.0624 8.47698 16.9124 7.52697 15.9874C6.36446 14.8499 6.00821 14.6124 5.33946 14.5249L5.0082 14.4874L4.98945 11.6936L4.9707 8.89983L4.73945 8.42483C4.31445 7.57482 3.56444 7.06856 2.63944 7.02481C2.37694 7.01231 2.05193 7.03106 1.91443 7.06231ZM3.18944 8.46233C3.32069 8.54358 3.48944 8.72483 3.57069 8.85608L3.7207 9.09358L3.73945 11.9811C3.75195 13.7374 3.7332 14.8749 3.69569 14.8749C3.66444 14.8749 3.49569 15.0061 3.32069 15.1624C3.10194 15.3561 2.92694 15.5999 2.77069 15.9249C2.54569 16.3749 2.53319 16.4311 2.53319 16.9999C2.53319 17.5686 2.54569 17.6249 2.76444 18.0687C2.97694 18.4874 3.15819 18.6937 4.7957 20.3249C6.58322 22.1062 6.60197 22.1249 6.85822 22.1249C7.21447 22.1249 7.43322 21.9312 7.48322 21.5749L7.52072 21.3062L5.70196 19.4812C3.82695 17.5936 3.75195 17.4999 3.75195 17.0061C3.75195 16.3499 4.35195 15.7499 5.0082 15.7499C5.45821 15.7499 5.63946 15.8749 6.65822 16.8686C7.20822 17.4124 7.79573 17.9436 7.95823 18.0562C8.73323 18.5874 10.2957 19.1749 11.6895 19.4624C12.1208 19.5562 12.6145 19.6999 12.7958 19.7874C13.227 19.9937 13.7645 20.5812 13.952 21.0437L14.0958 21.4062L14.1145 25.45L14.1333 29.5H11.4395H8.75198V27.875C8.75198 26.7625 8.72698 26.2062 8.67698 26.0937C8.62073 25.9687 8.17698 25.7187 6.57072 24.9062C5.11446 24.1687 4.37695 23.7624 3.9957 23.4749C2.72069 22.5124 1.90193 21.2749 1.45193 19.6312L1.28943 19.0312L1.26443 14.2061C1.25193 10.8373 1.26443 9.29983 1.31443 9.12483C1.39568 8.81858 1.78943 8.40607 2.07693 8.31857C2.40819 8.21857 2.92069 8.28107 3.18944 8.46233Z" fill="black"/>
<path d="M28.9145 7.06232C28.5208 7.16232 27.9583 7.49983 27.6833 7.79358C27.5458 7.94358 27.3395 8.25608 27.2333 8.48733L27.0333 8.90609L27.0145 11.6936L26.9958 14.4874L26.6645 14.5249C26.002 14.6124 25.6333 14.8561 24.5082 15.9561C23.9082 16.5436 23.3207 17.0561 23.1145 17.1749C22.3082 17.6499 21.2645 18.0124 20.0082 18.2562C19.6457 18.3249 19.1895 18.4437 19.002 18.5124C17.9769 18.9124 17.1957 19.7312 16.8019 20.8124L16.6582 21.2187L16.6394 25.7187C16.6269 29.0625 16.6394 30.2562 16.6957 30.3875C16.8457 30.7562 16.8019 30.75 20.5645 30.75C24.302 30.75 24.2707 30.75 24.427 30.4062C24.477 30.2937 24.502 29.7187 24.502 28.5V26.75L25.5833 26.2125C26.1708 25.9187 26.7083 25.6125 26.7645 25.5437C26.827 25.4687 26.877 25.3 26.877 25.1687C26.877 24.8562 26.6083 24.5624 26.3208 24.5624C26.1958 24.5624 25.6145 24.8187 24.7645 25.2437C23.6957 25.7812 23.3895 25.9625 23.327 26.0875C23.277 26.2062 23.252 26.7437 23.252 27.875V29.5H20.5645H17.8707L17.8894 25.45L17.9082 21.4062L18.0519 21.0437C18.2395 20.5812 18.7582 20.0187 19.202 19.7937C19.3895 19.6999 19.8707 19.5624 20.3145 19.4687C21.2207 19.2874 22.0957 19.0249 22.8145 18.7249C23.727 18.3374 24.2082 17.9874 25.3145 16.8999C26.3645 15.8749 26.5458 15.7499 26.9958 15.7499C27.652 15.7499 28.252 16.3499 28.252 17.0061C28.252 17.4999 28.177 17.5936 26.302 19.4812L24.4832 21.3062L24.5207 21.5749C24.5707 21.9312 24.7895 22.1249 25.1458 22.1249C25.402 22.1249 25.4208 22.1062 27.2083 20.3249C28.8458 18.6937 29.027 18.4874 29.2395 18.0687C29.4583 17.6249 29.4708 17.5686 29.4708 16.9999C29.4708 16.4311 29.4583 16.3749 29.2333 15.9249C29.077 15.5999 28.902 15.3561 28.6833 15.1624C28.5083 15.0061 28.3395 14.8749 28.3083 14.8749C28.2708 14.8749 28.252 13.7374 28.2645 11.9811L28.2833 9.09359L28.4333 8.85609C28.5145 8.72483 28.6958 8.54358 28.8333 8.44983C29.0458 8.31233 29.1583 8.28108 29.4958 8.28108C29.9895 8.28108 30.2958 8.43733 30.552 8.83109L30.7208 9.08734V14.0561V19.0312L30.552 19.6374C30.4583 19.9687 30.2583 20.5312 30.1083 20.8874C29.7895 21.6124 29.7833 21.7874 30.077 22.0312C30.2895 22.2124 30.5958 22.2374 30.802 22.0874C31.0958 21.8812 31.6333 20.5749 31.8521 19.5312C31.9646 19.0062 31.9708 18.6312 31.9708 13.9311V8.89984L31.7396 8.42483C31.3145 7.57483 30.5645 7.06857 29.6395 7.02482C29.377 7.01232 29.052 7.03107 28.9145 7.06232Z" fill="black"/>
<path d="M28.3834 23.2125C27.8397 23.5125 28.0709 24.375 28.6897 24.375C29.0084 24.375 29.3147 24.0687 29.3147 23.7562C29.3147 23.2875 28.7959 22.9812 28.3834 23.2125Z" fill="black"/>
</svg>
