<svg width="25" height="25" viewBox="0 0 25 25" fill="none" xmlns="http://www.w3.org/2000/svg">
<path d="M21.3333 11.9868C21.3367 13.3067 21.0283 14.6087 20.4333 15.7868C19.7277 17.1986 18.643 18.386 17.3007 19.2161C15.9584 20.0462 14.4115 20.4862 12.8333 20.4868C11.5134 20.4903 10.2114 20.1819 9.03325 19.5868L3.33325 21.4868L5.23325 15.7868C4.63818 14.6087 4.32981 13.3067 4.33325 11.9868C4.33386 10.4086 4.77386 8.8617 5.60397 7.51939C6.43408 6.17709 7.62151 5.09241 9.03325 4.38684C10.2114 3.79178 11.5134 3.4834 12.8333 3.48684H13.3333C15.4176 3.60184 17.3863 4.48161 18.8624 5.9577C20.3385 7.4338 21.2183 9.4025 21.3333 11.4868V11.9868Z" stroke="#24243F" stroke-width="2" stroke-linecap="round" stroke-linejoin="round"/>
<path d="M9.6665 10.4868C11.4614 10.4868 15.3742 10.4868 16.6665 10.4868" stroke="#24243F" stroke-width="2" stroke-linecap="round"/>
<path d="M9.6665 14.4868C10.6921 14.4868 12.928 14.4868 13.6665 14.4868" stroke="#24243F" stroke-width="2" stroke-linecap="round"/>
</svg>
