<svg width="33" height="30" viewBox="0 0 33 30" fill="none" xmlns="http://www.w3.org/2000/svg">
<path d="M6.38124 3.53647C3.02098 5.48085 0.215318 7.13162 0.137021 7.19687L0 7.32084V14.5438C0 21.3361 0.00652479 21.7798 0.117446 21.9037C0.267516 22.0864 12.5472 29.1593 12.7038 29.1593C12.769 29.1593 14.2958 28.3176 16.0836 27.2802L19.346 25.4076L19.3786 27.0061C19.4112 28.5851 19.4112 28.6112 19.5874 28.9375C19.7832 29.3029 20.0898 29.603 20.5074 29.8248L20.7815 29.9749L25.6816 29.9945C30.4773 30.0075 30.5947 30.0075 30.9405 29.877C31.4234 29.7009 31.7953 29.3616 32.0171 28.9114L32.1998 28.5395V21.4601V14.3807L32.0628 14.0805C31.8801 13.689 31.456 13.2649 31.0645 13.0888C30.8035 12.9648 30.6208 12.9452 29.7139 12.9256L28.6634 12.8995L28.5655 12.6907C28.4089 12.371 28.1284 12.0709 27.8347 11.9143C27.5933 11.7903 27.4498 11.7707 26.4776 11.7512L25.3814 11.7251V9.52622C25.3814 7.32737 25.3814 7.32084 25.2379 7.19035C25.1531 7.11205 22.3409 5.46128 18.9741 3.52342C14.6351 1.0179 12.8147 -0.00649639 12.6777 2.83973e-05C12.5602 2.83973e-05 10.3548 1.23974 6.38124 3.53647ZM15.2419 2.42072C17.2124 3.55604 17.7344 3.88228 17.6691 3.941C17.6235 3.98668 15.0853 5.46128 12.0252 7.22297L6.46607 10.4332L3.9475 8.97814C2.56424 8.18211 1.43545 7.51659 1.43545 7.49701C1.43545 7.45786 12.5928 0.985271 12.6777 0.978747C12.7038 0.972222 13.8587 1.6247 15.2419 2.42072ZM21.3752 5.95716C23.9329 7.43829 24.0177 7.49049 23.8677 7.58183C23.7829 7.63403 21.2382 9.10863 18.2107 10.8573C14.0087 13.2845 12.6777 14.0218 12.5994 13.9761C12.5406 13.9435 11.3597 13.2584 9.96335 12.4559C8.57357 11.6533 7.43826 10.9812 7.43826 10.9552C7.43826 10.9291 18.6544 4.43036 18.7066 4.43036C18.7131 4.43036 19.9137 5.11546 21.3752 5.95716ZM8.43655 12.619L12.2666 14.8243V21.3687V27.9131L11.1443 27.2606C10.5245 26.9017 7.96677 25.4337 5.46777 23.9917L0.91347 21.3687V14.8243V8.28651L2.75999 9.35005C3.77133 9.93076 6.32252 11.4054 8.43655 12.619ZM24.468 10.0025V11.7251L24.2265 11.7707C23.7111 11.8686 23.2282 12.2405 23.039 12.6973L22.9542 12.8995L21.9037 12.9256C20.8989 12.9452 20.8271 12.9517 20.4748 13.1279C20.0572 13.3367 19.7505 13.6499 19.5483 14.0805C19.4112 14.3741 19.4112 14.472 19.3786 19.3656L19.346 24.344L17.4864 25.4206C16.462 26.0144 15.0788 26.8169 14.4067 27.2084L13.1801 27.9131V21.3687V14.8243L18.811 11.562C21.9037 9.76111 24.4419 8.28651 24.4549 8.28651C24.4614 8.27999 24.468 9.05644 24.468 10.0025ZM27.5738 12.8734C27.7434 13.0431 27.7956 13.1475 27.7956 13.3367C27.7956 13.5259 27.7434 13.6303 27.5738 13.8L27.3519 14.0218H25.8055H24.2592L24.0373 13.8C23.8677 13.6303 23.8155 13.5259 23.8155 13.3367C23.8155 13.1475 23.8677 13.0431 24.0373 12.8734L24.2592 12.6516H25.8055H27.3519L27.5738 12.8734ZM23.0717 14.0544C23.2152 14.3611 23.6785 14.7656 23.9982 14.857C24.1678 14.9092 24.8138 14.9353 25.8447 14.9353C27.3062 14.9353 27.4628 14.9222 27.7304 14.7983C28.0957 14.6351 28.3567 14.3937 28.5199 14.0675L28.6503 13.8195L29.6486 13.8391C30.6143 13.8587 30.6535 13.8652 30.8753 14.0349C31.3516 14.4002 31.3255 13.8783 31.3059 21.5514C31.2864 28.3829 31.2864 28.4351 31.1493 28.6112C31.0776 28.7091 30.934 28.8526 30.8362 28.9244C30.66 29.0614 30.6013 29.0614 25.8055 29.0614C21.0098 29.0614 20.9511 29.0614 20.7749 28.9244C20.6771 28.8526 20.5335 28.7091 20.4617 28.6112C20.3247 28.4351 20.3247 28.3829 20.3051 21.6362C20.2986 17.8975 20.3051 14.7461 20.3247 14.6286C20.3704 14.3676 20.6444 14.0349 20.9119 13.9174C21.0424 13.8587 21.4144 13.8326 22.0342 13.8261H22.9607L23.0717 14.0544Z" fill="black"/>
<path d="M21.5449 16.586C21.4079 16.7295 21.4014 16.7948 21.4014 17.9758C21.4014 19.1894 21.4079 19.222 21.5514 19.359C21.7602 19.5613 22.4453 19.5678 22.6411 19.3721C22.8825 19.1307 22.7259 18.5891 22.4127 18.5891C22.3344 18.5891 22.3148 18.4782 22.3148 17.9692V17.3494H22.9347C23.5023 17.3494 23.5611 17.3624 23.7111 17.5125C23.9199 17.7213 24.1026 17.7213 24.3049 17.5125C24.4289 17.3951 24.468 17.2841 24.468 17.0558C24.468 16.8274 24.4289 16.7165 24.3049 16.599C24.1483 16.4359 24.1353 16.4359 22.9151 16.4359C21.7146 16.4359 21.6819 16.4424 21.5449 16.586Z" fill="black"/>
<path d="M24.4354 17.6104L23.7242 18.3216L23.4436 18.0672C23.0978 17.7474 22.8499 17.7213 22.6411 17.9823C22.4388 18.2433 22.5171 18.426 23.0587 18.9611C23.7438 19.6396 23.6981 19.6527 24.8726 18.4717C25.6425 17.7018 25.8382 17.4734 25.8382 17.3299C25.8382 17.0884 25.6229 16.8927 25.3619 16.8927C25.1792 16.8927 25.0553 16.9906 24.4354 17.6104Z" fill="black"/>
<path d="M26.5688 17.6953C26.3861 17.8911 26.3861 18.139 26.5754 18.3152C26.7254 18.4522 26.7776 18.4587 28.311 18.4587H29.89L30.0465 18.2956C30.1379 18.2108 30.2097 18.0738 30.2097 18.002C30.2097 17.9237 30.1379 17.7932 30.0465 17.7084L29.89 17.5453H28.2979C26.7189 17.5453 26.7059 17.5453 26.5688 17.6953Z" fill="black"/>
<path d="M21.5448 20.762C21.4077 20.9055 21.4012 20.9708 21.4012 22.1518C21.4012 23.796 21.2838 23.6786 22.9411 23.6786C24.5853 23.6786 24.4679 23.796 24.4679 22.1387C24.4679 20.4945 24.5853 20.6119 22.928 20.6119C21.7144 20.6119 21.6818 20.6185 21.5448 20.762ZM23.5544 22.1453V22.7651H22.9345H22.3147V22.1453V21.5254H22.9345H23.5544V22.1453Z" fill="black"/>
<path d="M26.5688 21.8711C26.3861 22.0669 26.3861 22.3148 26.5754 22.491C26.7254 22.628 26.7776 22.6345 28.311 22.6345H29.89L30.0465 22.4714C30.1379 22.3866 30.2097 22.2496 30.2097 22.1778C30.2097 22.106 30.1379 21.969 30.0465 21.8842L29.89 21.7211H28.2979C26.7189 21.7211 26.7059 21.7211 26.5688 21.8711Z" fill="black"/>
<path d="M21.5645 24.9508C21.4014 25.1074 21.4014 25.1205 21.4014 26.3406C21.4014 27.5412 21.4079 27.5738 21.5514 27.7108C21.7602 27.9131 22.4453 27.9196 22.6411 27.7239C22.8825 27.4825 22.7259 26.9409 22.4127 26.9409C22.3344 26.9409 22.3148 26.83 22.3148 26.321V25.7012H22.9347C23.4306 25.7012 23.5545 25.7208 23.5545 25.7925C23.5545 25.9165 23.8677 26.1579 24.0243 26.1579C24.0896 26.1579 24.2201 26.0862 24.3049 25.9948C24.4419 25.8643 24.468 25.773 24.468 25.4728C24.468 25.1727 24.4419 25.0813 24.3049 24.9508C24.1483 24.7877 24.1353 24.7877 22.9347 24.7877C21.7341 24.7877 21.7211 24.7877 21.5645 24.9508Z" fill="black"/>
<path d="M24.4418 26.0207L23.7176 26.7385L23.4435 26.4775C23.2804 26.3274 23.1042 26.223 23.0064 26.223C22.7649 26.223 22.5562 26.4318 22.5562 26.6732C22.5562 26.8494 22.6345 26.9668 23.039 27.3714C23.7306 28.0695 23.698 28.0826 24.879 26.8885C25.9034 25.8576 25.9686 25.7336 25.7076 25.4531C25.6228 25.3617 25.4923 25.3095 25.3683 25.3095C25.1987 25.3095 25.0486 25.4205 24.4418 26.0207Z" fill="black"/>
<path d="M26.5688 26.0469C26.3861 26.2426 26.3861 26.4906 26.5754 26.6668C26.7254 26.8038 26.7776 26.8103 28.311 26.8103H29.89L30.0465 26.6472C30.1379 26.5624 30.2097 26.4253 30.2097 26.3536C30.2097 26.2818 30.1379 26.1448 30.0465 26.06L29.89 25.8968H28.2979C26.7189 25.8968 26.7059 25.8968 26.5688 26.0469Z" fill="black"/>
</svg>
