<svg width="18" height="19" viewBox="0 0 18 19" fill="none" xmlns="http://www.w3.org/2000/svg">
<path d="M9.65775 1C10.2986 1 10.8788 1.35589 11.1992 1.88126C11.3551 2.13547 11.459 2.449 11.433 2.77947C11.4157 3.03368 11.4936 3.2879 11.6322 3.52516C12.0738 4.24542 13.0524 4.51658 13.8144 4.10984C14.6717 3.61837 15.7542 3.91495 16.2478 4.75384L16.828 5.75374C17.3303 6.59263 17.0532 7.66879 16.1872 8.15179C15.4511 8.58395 15.1913 9.54148 15.633 10.2702C15.7715 10.499 15.9274 10.6939 16.1699 10.8125C16.473 10.9735 16.7068 11.2277 16.8713 11.4819C17.1917 12.0073 17.1658 12.6513 16.854 13.2191L16.2478 14.2359C15.9274 14.7782 15.3299 15.1172 14.715 15.1172C14.412 15.1172 14.0742 15.0324 13.7971 14.863C13.572 14.7189 13.3122 14.6681 13.0351 14.6681C12.1777 14.6681 11.459 15.3714 11.433 16.2103C11.433 17.1847 10.6363 17.9474 9.64044 17.9474H8.46271C7.45818 17.9474 6.66148 17.1847 6.66148 16.2103C6.64416 15.3714 5.92541 14.6681 5.06809 14.6681C4.78232 14.6681 4.52253 14.7189 4.30603 14.863C4.02892 15.0324 3.68253 15.1172 3.3881 15.1172C2.7646 15.1172 2.16708 14.7782 1.84667 14.2359L1.24914 13.2191C0.928733 12.6683 0.911413 12.0073 1.23182 11.4819C1.37038 11.2277 1.63017 10.9735 1.9246 10.8125C2.16708 10.6939 2.32295 10.499 2.47017 10.2702C2.90315 9.54148 2.64336 8.58395 1.90728 8.15179C1.04997 7.66879 0.772857 6.59263 1.26646 5.75374L1.84667 4.75384C2.34893 3.91495 3.42274 3.61837 4.28871 4.10984C5.04211 4.51658 6.02066 4.24542 6.46231 3.52516C6.60086 3.2879 6.6788 3.03368 6.66148 2.77947C6.64416 2.449 6.73942 2.13547 6.90396 1.88126C7.22437 1.35589 7.80457 1.01695 8.43673 1H9.65775ZM9.06023 7.08411C7.70065 7.08411 6.60086 8.15179 6.60086 9.48216C6.60086 10.8125 7.70065 11.8717 9.06023 11.8717C10.4198 11.8717 11.4936 10.8125 11.4936 9.48216C11.4936 8.15179 10.4198 7.08411 9.06023 7.08411Z" stroke="#168652"/>
</svg>
