<svg width="194" height="190" viewBox="0 0 194 190" fill="none" xmlns="http://www.w3.org/2000/svg">
<path d="M58.008 150.728L51.42 176H43.968L39.936 159.368L35.76 176H28.308L21.9 150.728H28.488L32.124 169.124L36.624 150.728H43.392L47.712 169.124L51.384 150.728H58.008ZM80.0313 165.632C80.0313 166.208 79.9953 166.808 79.9233 167.432H65.9913C66.0873 168.68 66.4833 169.64 67.1793 170.312C67.8993 170.96 68.7753 171.284 69.8073 171.284C71.3433 171.284 72.4113 170.636 73.0113 169.34H79.5633C79.2273 170.66 78.6153 171.848 77.7273 172.904C76.8633 173.96 75.7713 174.788 74.4513 175.388C73.1313 175.988 71.6553 176.288 70.0233 176.288C68.0553 176.288 66.3033 175.868 64.7673 175.028C63.2313 174.188 62.0313 172.988 61.1673 171.428C60.3033 169.868 59.8713 168.044 59.8713 165.956C59.8713 163.868 60.2913 162.044 61.1313 160.484C61.9953 158.924 63.1953 157.724 64.7313 156.884C66.2673 156.044 68.0313 155.624 70.0233 155.624C71.9673 155.624 73.6953 156.032 75.2073 156.848C76.7193 157.664 77.8953 158.828 78.7353 160.34C79.5993 161.852 80.0313 163.616 80.0313 165.632ZM73.7313 164.012C73.7313 162.956 73.3713 162.116 72.6513 161.492C71.9313 160.868 71.0313 160.556 69.9513 160.556C68.9193 160.556 68.0433 160.856 67.3233 161.456C66.6273 162.056 66.1953 162.908 66.0273 164.012H73.7313ZM87.0949 159.908C87.7429 158.78 88.7029 157.844 89.9749 157.1C91.2709 156.332 92.7709 155.948 94.4749 155.948C96.2269 155.948 97.8109 156.368 99.2269 157.208C100.667 158.048 101.795 159.236 102.611 160.772C103.427 162.284 103.835 164.048 103.835 166.064C103.835 168.056 103.427 169.832 102.611 171.392C101.795 172.952 100.667 174.164 99.2269 175.028C97.8109 175.892 96.2269 176.324 94.4749 176.324C92.7949 176.324 91.3069 175.952 90.0109 175.208C88.7389 174.44 87.7669 173.492 87.0949 172.364V185.36H83.8189V156.272H87.0949V159.908ZM100.487 166.064C100.487 164.576 100.187 163.28 99.5869 162.176C98.9869 161.072 98.1709 160.232 97.1389 159.656C96.1309 159.08 95.0149 158.792 93.7909 158.792C92.5909 158.792 91.4749 159.092 90.4429 159.692C89.4349 160.268 88.6189 161.12 87.9949 162.248C87.3949 163.352 87.0949 164.636 87.0949 166.1C87.0949 167.588 87.3949 168.896 87.9949 170.024C88.6189 171.128 89.4349 171.98 90.4429 172.58C91.4749 173.156 92.5909 173.444 93.7909 173.444C95.0149 173.444 96.1309 173.156 97.1389 172.58C98.1709 171.98 98.9869 171.128 99.5869 170.024C100.187 168.896 100.487 167.576 100.487 166.064ZM111.423 149.36V176H108.147V149.36H111.423ZM115.782 166.064C115.782 164.048 116.19 162.284 117.006 160.772C117.822 159.236 118.938 158.048 120.354 157.208C121.794 156.368 123.39 155.948 125.142 155.948C126.87 155.948 128.37 156.32 129.642 157.064C130.914 157.808 131.862 158.744 132.486 159.872V156.272H135.798V176H132.486V172.328C131.838 173.48 130.866 174.44 129.57 175.208C128.298 175.952 126.81 176.324 125.106 176.324C123.354 176.324 121.77 175.892 120.354 175.028C118.938 174.164 117.822 172.952 117.006 171.392C116.19 169.832 115.782 168.056 115.782 166.064ZM132.486 166.1C132.486 164.612 132.186 163.316 131.586 162.212C130.986 161.108 130.17 160.268 129.138 159.692C128.13 159.092 127.014 158.792 125.79 158.792C124.566 158.792 123.45 159.08 122.442 159.656C121.434 160.232 120.63 161.072 120.03 162.176C119.43 163.28 119.13 164.576 119.13 166.064C119.13 167.576 119.43 168.896 120.03 170.024C120.63 171.128 121.434 171.98 122.442 172.58C123.45 173.156 124.566 173.444 125.79 173.444C127.014 173.444 128.13 173.156 129.138 172.58C130.17 171.98 130.986 171.128 131.586 170.024C132.186 168.896 132.486 167.588 132.486 166.1ZM150.947 155.912C153.347 155.912 155.291 156.644 156.779 158.108C158.267 159.548 159.011 161.636 159.011 164.372V176H155.771V164.84C155.771 162.872 155.279 161.372 154.295 160.34C153.311 159.284 151.967 158.756 150.263 158.756C148.535 158.756 147.155 159.296 146.123 160.376C145.115 161.456 144.611 163.028 144.611 165.092V176H141.335V156.272H144.611V159.08C145.259 158.072 146.135 157.292 147.239 156.74C148.367 156.188 149.603 155.912 150.947 155.912ZM168.358 158.972V170.6C168.358 171.56 168.562 172.244 168.97 172.652C169.378 173.036 170.086 173.228 171.094 173.228H173.506V176H170.554C168.73 176 167.362 175.58 166.45 174.74C165.538 173.9 165.082 172.52 165.082 170.6V158.972H162.526V156.272H165.082V151.304H168.358V156.272H173.506V158.972H168.358Z" fill="#168652"/>
<g clip-path="url(#clip0_15_11)">
<path d="M110.64 101.06C131.9 81.15 156.37 74.49 185.38 83C183.98 85.55 182.99 87.07 182.26 88.71C180.45 92.71 177.56 93.43 173.37 92.65C158.76 89.94 144.87 92.14 132.09 99.93C128.835 101.939 125.751 104.214 122.87 106.73C115.93 112.73 115.87 113.36 120.47 122.18C133.29 105.8 149.73 98.25 170.6 101.06C169.6 105.56 162.83 112.19 158.73 112.7C147.78 114.05 139.21 119.23 131.87 127.47C126.82 133.11 119 133 112 133.68C111.23 133.76 109.81 130.78 109.29 129.04C102.39 105.89 88.12 88.86 66.47 78.31C48.06 69.31 28.79 68.25 9.12001 73.68C3.94001 75.11 -1.11999 70.68 0.230011 65.41C0.560011 64.15 2.72001 62.98 4.23001 62.5C25.89 55.72 47.34 56.6 68 65.79C77.32 69.94 85.81 75.93 95.07 81.32V65.15C95.07 60.15 94.81 55.15 95.15 50.15C95.41 46.22 93.93 44.56 90.15 43.73C82.35 42 77.3 36.42 76.15 29.24C75.52 25.24 76.93 22.54 81.08 23.97C86.01 25.67 90.55 28.47 94.92 30.63C94.8774 28.3461 95.0448 26.0632 95.42 23.81C97.06 16.36 103.77 10.81 111.42 10.09C114.71 9.76998 116.17 11.09 115.74 14.39C114.96 20.32 112.6 26 107.04 28.11C100.62 30.56 100.15 34.79 100.68 40.21C100.77 41.21 100.68 42.21 100.68 44.05C105.68 38.39 110.83 34.86 117.96 36.05C120.68 44.05 115.6 53.37 106.54 55.47C101.41 56.66 100.35 59.16 100.61 63.76C100.92 69.33 100.68 74.93 100.68 79.87C110.17 74.69 119.11 68.87 128.78 64.75C148.29 56.47 168.5 56.24 188.84 61.94C191.55 62.7 193.91 63.41 192.73 67.28C190.73 73.77 189.73 74.85 185.19 73.66C157.74 66.46 132.77 71.23 110.67 89.31C104.53 94.4 104.67 94.9 110.64 101.06Z" fill="#168652"/>
<path d="M4 82.1529C12.34 80.9829 20.17 78.8129 27.95 79.0129C52.55 79.6529 72.68 89.7929 86.66 110.373C90.66 116.373 93.16 123.373 96.16 130.033C97.68 133.393 96.72 135.253 92.61 135.483C87.71 135.763 84.89 134.483 82.93 129.353C78.041 116.294 68.665 105.4 56.4794 98.6215C44.2939 91.8426 30.0939 89.6206 16.42 92.3529C9.42 93.7129 7.24 92.1329 4 82.1529Z" fill="#168652"/>
<path d="M21.29 102.13C45 94.94 74.23 112.85 78.17 133.65C71.94 132.23 65.84 132.31 61.32 126.55C54.67 118.08 45.56 113.69 34.72 112.62C28.47 112 25.84 106.43 21.29 102.13Z" fill="#168652"/>
<path d="M74.6901 0.0500082C85.6901 -0.609992 93.5601 5.81001 94.4101 16.16C94.5201 17.53 92.9401 20.16 91.8301 20.34C82.0701 22 72.0001 10 74.6901 0.0500082Z" fill="#168652"/>
</g>
<defs>
<clipPath id="clip0_15_11">
<rect width="193.09" height="135.75" fill="white"/>
</clipPath>
</defs>
</svg>
